<?xml version="1.0" encoding="iso-8859-1"?>
<!-- Uploaded to: SVG Repo, www.svgrepo.com, Generator: SVG Repo Mixer Tools -->
<!DOCTYPE svg PUBLIC "-//W3C//DTD SVG 1.1//EN" "http://www.w3.org/Graphics/SVG/1.1/DTD/svg11.dtd">
<svg fill="#000000" height="800px" width="800px" version="1.1" id="Capa_1" xmlns="http://www.w3.org/2000/svg" xmlns:xlink="http://www.w3.org/1999/xlink" 
	 viewBox="0 0 297 297" xml:space="preserve">
<g>
	<path d="M280,60.88H135.716c-5.135,0-9.297-4.163-9.297-9.297V34.874c0-9.389-7.611-17-17-17H17c-9.389,0-17,7.611-17,17v194.993
		c0,9.389,7.611,17,17,17h48.58c-5.783-3.369-10.446-8.617-12.944-15.075c-5.966-15.428,1.731-32.834,17.159-38.802l0.555-0.214
		c-1.319-2.069-2.535-4.196-3.643-6.379c-5.09-10.024-7.671-20.706-7.671-31.749c0-16.542,13.458-30,30-30
		c3.474,0,6.812,0.593,9.918,1.685c-0.171-1.808-0.257-3.629-0.257-5.458c0-15.519,12.626-28.145,28.145-28.145
		c7.402,0,14.146,2.872,19.176,7.561c0.826-0.048,1.654-0.072,2.484-0.072c0.83,0,1.657,0.024,2.482,0.071
		c5.03-4.689,11.773-7.561,19.176-7.561c15.519,0,28.145,12.625,28.145,28.145c0,1.83-0.086,3.65-0.257,5.458
		c3.106-1.091,6.445-1.685,9.919-1.685c16.542,0,30,13.458,30,30c0,11.043-2.581,21.725-7.671,31.749
		c-1.108,2.183-2.323,4.31-3.643,6.378l0.555,0.215c15.428,5.967,23.125,23.374,17.157,38.805
		c-2.498,6.455-7.16,11.703-12.943,15.071H280c9.389,0,17-7.611,17-17V77.88C297,68.491,289.389,60.88,280,60.88z"/>
	<path d="M219.991,211.644l-22.522-8.711v-7.061c12.651-10.543,20.496-25.13,20.496-41.224c0-5.523-4.477-10-10-10
		c-5.522,0-10,4.477-10,10c0,4.938-1.233,9.654-3.453,13.989c-2.549-4.872-6.592-8.837-11.525-11.284
		c-0.444-6.174-3.443-13.84-8.165-20.605c2.176-4.792,3.481-10.176,3.481-15.874c0-4.498-3.646-8.145-8.144-8.145
		c-4.498,0-8.145,3.646-8.145,8.145c0,1.12-0.112,2.2-0.275,3.257c-4.078-2.434-8.548-3.912-13.238-3.912
		c-4.691,0-9.162,1.478-13.24,3.913c-0.163-1.057-0.275-2.138-0.275-3.258c0-4.498-3.646-8.145-8.145-8.145
		c-4.498,0-8.145,3.646-8.145,8.145c0,5.698,1.306,11.082,3.482,15.874c-4.722,6.765-7.72,14.43-8.165,20.604
		c-4.933,2.448-8.976,6.412-11.525,11.284c-2.22-4.335-3.453-9.051-3.453-13.989c0-5.523-4.478-10-10-10c-5.522,0-10,4.477-10,10
		c0,16.094,7.844,30.68,20.495,41.224v7.061l-22.522,8.711c-5.15,1.992-7.712,7.783-5.72,12.934
		c1.534,3.965,5.318,6.396,9.329,6.396c1.199,0,2.42-0.218,3.605-0.676l15.53-6.006c0.503,5.378,1.879,10.499,3.978,15.229
		c-4.46,8.708-7.03,18.819-7.03,29.605c0,5.522,4.478,10,10,10c5.523,0,10-4.478,10-10c0-3.866,0.468-7.598,1.328-11.126
		c8.364,6.659,18.948,10.649,30.47,10.649c11.522,0,22.106-3.99,30.47-10.649c0.859,3.528,1.328,7.261,1.328,11.126
		c0,5.522,4.477,10,10,10c5.522,0,10-4.478,10-10c0-10.787-2.569-20.898-7.03-29.606c2.1-4.73,3.476-9.851,3.978-15.229l15.53,6.006
		c1.186,0.458,2.405,0.676,3.605,0.676c4.011,0,7.795-2.431,9.329-6.396C227.703,219.427,225.142,213.636,219.991,211.644z"/>
</g>
</svg>